<svg xmlns="http://www.w3.org/2000/svg" viewBox="0 0 540 540"><defs><style>.cls-1{fill:#f2f2f2;}</style></defs><title>brush-icon</title><g id="Layer_2" data-name="Layer 2"><g id="Layer_1-2" data-name="Layer 1"><path class="cls-1" d="M217.87,301.25c-23.51,1.51-44.84,10.46-56.95,42.36a8.94,8.94,0,0,1-8.55,5.85c-6.51,0-26.64-16.21-32.37-20.13,0,48.25,22.23,90.66,75,90.66,44.45,0,75-25.65,75-70.42a50.76,50.76,0,0,0-.57-5.35l-51.57-43ZM388.3,120c-8.88,0-17.21,3.93-23.56,9.64-119.77,107-132.23,109.5-132.23,141a54.24,54.24,0,0,0,5.12,22.68L275,324.47a53.91,53.91,0,0,0,13.12,1.78c36.39,0,57.49-26.64,123.72-150.27,4.32-8.41,8.14-17.49,8.14-26.95C420,132.1,404.77,120,388.3,120Z"/><path class="cls-1" d="M270,540A270,270,0,0,1,79.08,79.08,270,270,0,0,1,460.92,460.92,268.23,268.23,0,0,1,270,540Zm0-500C143.18,40,40,143.18,40,270S143.18,500,270,500,500,396.82,500,270,396.82,40,270,40Z"/></g></g></svg>