<svg xmlns="http://www.w3.org/2000/svg" viewBox="0 0 256 256"><defs><style>.cls-1{fill:#f2f2f2;}</style></defs><title>git-icon-white</title><g id="Layer_2" data-name="Layer 2"><g id="Layer_1-2" data-name="Layer 1"><path class="cls-1" d="M55.37,206.45a14.5,14.5,0,0,0,2.49,2.76A13.59,13.59,0,0,0,60,207.64,37.83,37.83,0,0,0,56.63,205C56.53,205,55.27,206.31,55.37,206.45Z"/><path class="cls-1" d="M50.48,199.65A16.54,16.54,0,0,0,52.82,202c.1.08.8-.6,1.82-1.38a31.87,31.87,0,0,0-3.14-2C51.37,198.49,50.44,199.59,50.48,199.65Z"/><path class="cls-1" d="M254.68,32.47c-4.31-17.23-18-29.46-35.8-32A8,8,0,0,1,217.5,0H38.5c-2,.44-4,.82-6,1.32C15.24,5.63,3,19.33.47,37.12A8,8,0,0,1,0,38.5v179c.44,2,.82,4,1.32,6,4.31,17.23,18.05,29.49,35.8,32a7.74,7.74,0,0,1,1.38.47h179c2-.44,4-.82,6-1.32,17.24-4.32,29.45-18,32-35.8a8,8,0,0,1,.47-1.38V38.5C255.57,36.49,255.18,34.46,254.68,32.47Zm-46.4,118.6c-1.64,9.38-5.05,18.08-11.23,25.51-8.06,9.69-18.79,14.79-30.76,17.63-4.74,1.12-9.56,1.86-14.52,2.81,6.44,6.81,8.21,15.07,8.17,23.95q-.06,13-.05,26H96.2V231.84c-7.51,1.57-14.47,2.17-21.43.94-10.25-1.82-18.1-6.91-22.23-16.92-3.11-7.52-7.38-14.15-14.6-18.46A10.25,10.25,0,0,1,35.19,195c-.66-.83-1.53-2.24-1.23-2.88a3.74,3.74,0,0,1,2.86-1.75,29.51,29.51,0,0,1,8.58,1c6.52,2.19,11,7,14.46,12.76a26.73,26.73,0,0,0,10.4,10.24c8.45,4.43,16.93,3.26,25.32-.2.57-.24,1-1.31,1.13-2.06a30.07,30.07,0,0,1,5.37-12.67c.66-.86,1.41-1.66,1.88-2.21-6.55-1.48-13.18-2.57-19.56-4.5-13.79-4.18-24.78-12.09-31.35-25.32-4.29-8.64-5.9-17.89-6.65-27.42-1.18-14.89,2.23-28.29,12-39.85a3,3,0,0,0,.51-2.36c-3.43-10.63-2.44-21.06,1.37-31.35a2.59,2.59,0,0,1,1.95-1.4,47.84,47.84,0,0,1,8.88,1c8.46,2.12,16,6.38,23.16,11.16a4.23,4.23,0,0,0,3.54.66c5.13-1.13,10.27-2.32,15.47-3a122.62,122.62,0,0,1,45.22,2.89,4.76,4.76,0,0,0,3.08-.56c4.89-2.63,9.61-5.6,14.6-8,5.39-2.64,11.09-4.53,17.24-4.21a3,3,0,0,1,2.27,1.32c3.78,10.13,4.77,20.45,1.53,30.93a3.14,3.14,0,0,0,.7,3.43,47.08,47.08,0,0,1,10.53,21C210.61,131.5,210,141.31,208.28,151.07Z"/><path class="cls-1" d="M45.76,193.2c-.23.58-.81,1.37-.61,1.7a4.72,4.72,0,0,0,1.9,1.66c.22.11.86-.6,1.31-.94l-1.63-1.92Z"/><path class="cls-1" d="M62.26,212.27c-.21.32-.88.89-.95,1.53-.15,1.22,2,3.23,3.1,2.91A2.35,2.35,0,0,0,65.78,215C65.93,213.68,64.23,212.24,62.26,212.27Z"/><path class="cls-1" d="M71.9,217.87c-.73.1-1.37.91-2,1.39l3,3.14c1.06-1.11,2.24-1.81,2.17-2.36A2.56,2.56,0,0,0,71.9,217.87Z"/><path class="cls-1" d="M92.89,218.36c-1.05.21-1.94,1.23-2.89,1.91l2.34,2.49,3-3C94.5,219.27,93.57,218.22,92.89,218.36Z"/><path class="cls-1" d="M80.15,221.35c.87.61,1.74,1.71,2.59,1.68s1.88-1.06,2.82-1.67l-2.62-2.63Z"/></g></g></svg>