<svg xmlns="http://www.w3.org/2000/svg" viewBox="0 0 888 1138.84"><defs><style>.cls-1{fill:#f2f2f2;}</style></defs><title>nd3-tech-logo-2</title><g id="Layer_2" data-name="Layer 2"><g id="Layer_1-2" data-name="Layer 1"><path class="cls-1" d="M672.46,824.55H388.77c-36.34,0-59.39-38.94-41.9-70.79l1.08-2a47.8,47.8,0,0,1,41.9-24.8H572.46a47.8,47.8,0,0,0,47.8-47.8V431.06a47.8,47.8,0,0,0-32.6-45.32l-296.9-99.55a47.8,47.8,0,0,1-32.58-47h0a47.8,47.8,0,0,1,62.64-43.77L687.33,315.38a47.8,47.8,0,0,1,32.93,45.43V776.75A47.8,47.8,0,0,1,672.46,824.55Z"/><path class="cls-1" d="M670.22,983.56H181.71c-37.32,0-60.24-40.85-40.8-72.7l2.69-4.4a47.8,47.8,0,0,1,40.8-22.9H670.22a47.8,47.8,0,0,1,47.8,47.8v4.4A47.8,47.8,0,0,1,670.22,983.56Z"/><path class="cls-1" d="M209.78,824.37h-4.4a47.8,47.8,0,0,1-47.8-47.8V379.73a47.8,47.8,0,0,1,61-45.95l312.36,89.58a47.8,47.8,0,0,1,34.62,45.95V649.24a47.8,47.8,0,0,1-47.8,47.8h-4.4a47.8,47.8,0,0,1-47.8-47.8V539.1A47.8,47.8,0,0,0,431,493.18L318.62,460.76a47.8,47.8,0,0,0-61,45.93V776.57A47.8,47.8,0,0,1,209.78,824.37Z"/><path class="cls-1" d="M621,1138.84v-50H838V746.42h50v392.42Zm-621,0V746.42H50v342.42H267v50ZM838,392.42V50H621V0H888V392.42Zm-838,0V0H267V50H50V392.42Z"/></g></g></svg>