<svg xmlns="http://www.w3.org/2000/svg" viewBox="0 0 540 540"><defs><style>.cls-1{fill:#f2f2f2;}</style></defs><title>pallet-icon</title><g id="Layer_2" data-name="Layer 2"><g id="Layer_1-2" data-name="Layer 1"><path class="cls-1" d="M270,540A270,270,0,0,1,79.08,79.08,270,270,0,0,1,460.92,460.92,268.23,268.23,0,0,1,270,540Zm0-500C143.18,40,40,143.18,40,270S143.18,500,270,500,500,396.82,500,270,396.82,40,270,40Z"/><path class="cls-1" d="M239.7,122.95C181.46,134.32,134.52,181.13,123,239.2c-21.68,109.57,77.17,191.25,151.64,179.71,24.14-3.75,36-32,24.9-53.73-13.54-26.6,5.8-57.66,35.68-57.66H382c21,0,38-17.34,38-38.26C419.71,176.92,335.68,104.26,239.7,122.95ZM176.24,307.36A18.75,18.75,0,1,1,195,288.61,18.73,18.73,0,0,1,176.24,307.36Zm18.75-75a18.75,18.75,0,1,1,18.75-18.75A18.73,18.73,0,0,1,195,232.36Zm75-37.5a18.75,18.75,0,1,1,18.75-18.75A18.73,18.73,0,0,1,270,194.86Zm75,37.5a18.75,18.75,0,1,1,18.75-18.75A18.73,18.73,0,0,1,345,232.36Z"/></g></g></svg>