<svg xmlns="http://www.w3.org/2000/svg" viewBox="0 0 540 540"><defs><style>.cls-1{fill:#f2f2f2;}</style></defs><title>pencil-icon</title><g id="Layer_2" data-name="Layer 2"><g id="Layer_1-2" data-name="Layer 1"><path class="cls-1" d="M411.74,203.22l-27,27a7,7,0,0,1-10,0l-65-65a7,7,0,0,1,0-10l27-27a28.19,28.19,0,0,1,39.79,0l35.22,35.22A28.08,28.08,0,0,1,411.74,203.22ZM286.52,178.43,132.64,332.31,120.22,403.5a14.08,14.08,0,0,0,16.29,16.29l71.19-12.48L361.58,253.44a7,7,0,0,0,0-10l-65-65a7.11,7.11,0,0,0-10,0ZM192.7,319.12a8.17,8.17,0,0,1,0-11.6l90.24-90.24a8.2,8.2,0,0,1,11.6,11.6l-90.24,90.24a8.17,8.17,0,0,1-11.6,0Zm-21.42,49.32h28.13v21.27l-37.79,6.62-18.22-18.22L150,340.32h21.27Z"/><path class="cls-1" d="M270,540A270,270,0,0,1,79.08,79.08,270,270,0,0,1,460.92,460.92,268.23,268.23,0,0,1,270,540Zm0-500C143.18,40,40,143.18,40,270S143.18,500,270,500,500,396.82,500,270,396.82,40,270,40Z"/></g></g></svg>