<svg xmlns="http://www.w3.org/2000/svg" viewBox="0 0 540 540"><defs><style>.cls-1{fill:#f2f2f2;}</style></defs><title>pentool-icon</title><g id="Layer_2" data-name="Layer 2"><g id="Layer_1-2" data-name="Layer 1"><path class="cls-1" d="M166.39,285.79a18.75,18.75,0,0,0-11.86,11.86L120,401.25l2.75,2.75,54.43-54.43a18,18,0,0,1-.92-4.57A18.75,18.75,0,1,1,195,363.75a18,18,0,0,1-4.57-.92L136,417.26l2.74,2.74,103.61-34.54a18.74,18.74,0,0,0,11.86-11.86l19.38-49.26-57.94-57.94Zm170-149.19L229.07,253.48l57.33,57.33L403.29,203.53C453,159.54,380,87.22,336.36,136.59Z"/><path class="cls-1" d="M270,540A270,270,0,0,1,79.08,79.08,270,270,0,0,1,460.92,460.92,268.23,268.23,0,0,1,270,540Zm0-500C143.18,40,40,143.18,40,270S143.18,500,270,500,500,396.82,500,270,396.82,40,270,40Z"/></g></g></svg>